# xmcd
#
# Track frame offsets:
#	150
#	17509
#	46545
#	64932
#	83215
#	110136
#	137117
#	154923
#	176358
#	203518
#	221470
#
# Disc length: 3259 seconds
#
# Revision: 1
# Processed by: cddbd v1.4b41PL2 Copyright (c) Steve Scherf et al.
# Submitted via: audiograbber 1.80
#
DISCID=8d0cb90b
DTITLE=Hamilton Loomis - All Fired Up
DYEAR=1900
DGENRE=
TTITLE0=Voodoo Doll
TTITLE1=Roll Over
TTITLE2=I'll Be Gone
TTITLE3=Wishin'
TTITLE4=Time
TTITLE5=What It Is
TTITLE6=Whatever You Want
TTITLE7=Walking' Next To The Blues
TTITLE8=Warming Trend
TTITLE9=Chicken Fat
TTITLE10=The Way It's Gonna Be
EXTD=
EXTT0=
EXTT1=
EXTT2=
EXTT3=
EXTT4=
EXTT5=
EXTT6=
EXTT7=
EXTT8=
EXTT9=
EXTT10=
PLAYORDER=
